<mxfile host="app.diagrams.net" agent="Mozilla/5.0 (Windows NT 10.0; Win64; x64) AppleWebKit/537.36 (KHTML, like Gecko) Chrome/141.0.0.0 Safari/537.36" version="28.2.5">
  <diagram name="Page-1" id="dTaT5azgy4vgICIt24VA">
    <mxGraphModel dx="2084" dy="1124" grid="1" gridSize="10" guides="1" tooltips="1" connect="1" arrows="1" fold="1" page="1" pageScale="1" pageWidth="1000" pageHeight="1169" math="0" shadow="0">
      <root>
        <mxCell id="0" />
        <mxCell id="1" parent="0" />
        <mxCell id="XfNwtgA03yaYJ1Ry23kn-1" value="Start" style="rounded=1;whiteSpace=wrap;arcSize=50;strokeWidth=2;" vertex="1" parent="1">
          <mxGeometry x="489.92" y="80" width="60" height="39" as="geometry" />
        </mxCell>
        <mxCell id="XfNwtgA03yaYJ1Ry23kn-2" value="Display &#39;Enter N : &#39;" style="whiteSpace=wrap;strokeWidth=2;" vertex="1" parent="1">
          <mxGeometry x="424.92" y="169" width="190" height="54" as="geometry" />
        </mxCell>
        <mxCell id="XfNwtgA03yaYJ1Ry23kn-40" style="edgeStyle=orthogonalEdgeStyle;rounded=0;orthogonalLoop=1;jettySize=auto;html=1;entryX=0.5;entryY=0;entryDx=0;entryDy=0;exitX=0;exitY=0.5;exitDx=0;exitDy=0;" edge="1" parent="1" source="XfNwtgA03yaYJ1Ry23kn-3" target="XfNwtgA03yaYJ1Ry23kn-6">
          <mxGeometry relative="1" as="geometry" />
        </mxCell>
        <mxCell id="XfNwtgA03yaYJ1Ry23kn-51" style="edgeStyle=orthogonalEdgeStyle;rounded=0;orthogonalLoop=1;jettySize=auto;html=1;entryX=0.5;entryY=0;entryDx=0;entryDy=0;" edge="1" parent="1" source="XfNwtgA03yaYJ1Ry23kn-3" target="XfNwtgA03yaYJ1Ry23kn-4">
          <mxGeometry relative="1" as="geometry" />
        </mxCell>
        <mxCell id="XfNwtgA03yaYJ1Ry23kn-3" value="Input N valid and &gt; 0?" style="rhombus;strokeWidth=2;whiteSpace=wrap;" vertex="1" parent="1">
          <mxGeometry x="416" y="260" width="209" height="209" as="geometry" />
        </mxCell>
        <mxCell id="XfNwtgA03yaYJ1Ry23kn-54" style="edgeStyle=orthogonalEdgeStyle;rounded=0;orthogonalLoop=1;jettySize=auto;html=1;entryX=0.5;entryY=0;entryDx=0;entryDy=0;" edge="1" parent="1" source="XfNwtgA03yaYJ1Ry23kn-58" target="XfNwtgA03yaYJ1Ry23kn-5">
          <mxGeometry relative="1" as="geometry" />
        </mxCell>
        <mxCell id="XfNwtgA03yaYJ1Ry23kn-4" value="Display &#39;Invalid input for N. Program terminated.&#39;" style="whiteSpace=wrap;strokeWidth=2;" vertex="1" parent="1">
          <mxGeometry x="390" y="1000" width="260" height="78" as="geometry" />
        </mxCell>
        <mxCell id="XfNwtgA03yaYJ1Ry23kn-5" value="End" style="rounded=1;whiteSpace=wrap;arcSize=50;strokeWidth=2;" vertex="1" parent="1">
          <mxGeometry x="495" y="1321.5" width="51" height="39" as="geometry" />
        </mxCell>
        <mxCell id="XfNwtgA03yaYJ1Ry23kn-6" value="Create array of size N" style="whiteSpace=wrap;strokeWidth=2;" vertex="1" parent="1">
          <mxGeometry x="186.92000000000002" y="500" width="216" height="54" as="geometry" />
        </mxCell>
        <mxCell id="XfNwtgA03yaYJ1Ry23kn-44" style="edgeStyle=orthogonalEdgeStyle;rounded=0;orthogonalLoop=1;jettySize=auto;html=1;entryX=0.5;entryY=0;entryDx=0;entryDy=0;" edge="1" parent="1" source="XfNwtgA03yaYJ1Ry23kn-42" target="XfNwtgA03yaYJ1Ry23kn-8">
          <mxGeometry relative="1" as="geometry" />
        </mxCell>
        <mxCell id="XfNwtgA03yaYJ1Ry23kn-7" value="Set i = 0" style="whiteSpace=wrap;strokeWidth=2;" vertex="1" parent="1">
          <mxGeometry x="235.92000000000002" y="604" width="119" height="54" as="geometry" />
        </mxCell>
        <mxCell id="XfNwtgA03yaYJ1Ry23kn-46" value="" style="edgeStyle=orthogonalEdgeStyle;rounded=0;orthogonalLoop=1;jettySize=auto;html=1;" edge="1" parent="1" source="XfNwtgA03yaYJ1Ry23kn-8" target="XfNwtgA03yaYJ1Ry23kn-9">
          <mxGeometry relative="1" as="geometry" />
        </mxCell>
        <mxCell id="XfNwtgA03yaYJ1Ry23kn-50" style="edgeStyle=orthogonalEdgeStyle;rounded=0;orthogonalLoop=1;jettySize=auto;html=1;entryX=0.5;entryY=0;entryDx=0;entryDy=0;" edge="1" parent="1" source="XfNwtgA03yaYJ1Ry23kn-8" target="XfNwtgA03yaYJ1Ry23kn-11">
          <mxGeometry relative="1" as="geometry" />
        </mxCell>
        <mxCell id="XfNwtgA03yaYJ1Ry23kn-8" value="i &amp;lt; N?" style="rhombus;strokeWidth=2;whiteSpace=wrap;" vertex="1" parent="1">
          <mxGeometry x="248.42000000000002" y="726" width="93" height="93" as="geometry" />
        </mxCell>
        <mxCell id="XfNwtgA03yaYJ1Ry23kn-41" value="" style="edgeStyle=orthogonalEdgeStyle;rounded=0;orthogonalLoop=1;jettySize=auto;html=1;" edge="1" parent="1" source="XfNwtgA03yaYJ1Ry23kn-9" target="XfNwtgA03yaYJ1Ry23kn-10">
          <mxGeometry relative="1" as="geometry" />
        </mxCell>
        <mxCell id="XfNwtgA03yaYJ1Ry23kn-9" value="Display &#39;Enter value i :&#39; and input arr i" style="whiteSpace=wrap;strokeWidth=2;" vertex="1" parent="1">
          <mxGeometry x="164.92000000000002" y="856" width="260" height="78" as="geometry" />
        </mxCell>
        <mxCell id="XfNwtgA03yaYJ1Ry23kn-47" style="edgeStyle=orthogonalEdgeStyle;rounded=0;orthogonalLoop=1;jettySize=auto;html=1;entryX=0;entryY=0.5;entryDx=0;entryDy=0;" edge="1" parent="1" source="XfNwtgA03yaYJ1Ry23kn-10" target="XfNwtgA03yaYJ1Ry23kn-42">
          <mxGeometry relative="1" as="geometry">
            <Array as="points">
              <mxPoint x="139.92000000000002" y="1026" />
              <mxPoint x="139.92000000000002" y="686" />
            </Array>
          </mxGeometry>
        </mxCell>
        <mxCell id="XfNwtgA03yaYJ1Ry23kn-10" value="Increment i" style="whiteSpace=wrap;strokeWidth=2;" vertex="1" parent="1">
          <mxGeometry x="223.42000000000002" y="999" width="143" height="54" as="geometry" />
        </mxCell>
        <mxCell id="XfNwtgA03yaYJ1Ry23kn-11" value="Display &#39;Index:&#39; and print i" style="whiteSpace=wrap;strokeWidth=2;" vertex="1" parent="1">
          <mxGeometry x="604" y="800" width="245" height="54" as="geometry" />
        </mxCell>
        <mxCell id="XfNwtgA03yaYJ1Ry23kn-12" value="Display &#39;Array:&#39;" style="whiteSpace=wrap;strokeWidth=2;" vertex="1" parent="1">
          <mxGeometry x="644" y="916" width="165" height="54" as="geometry" />
        </mxCell>
        <mxCell id="XfNwtgA03yaYJ1Ry23kn-55" value="" style="edgeStyle=orthogonalEdgeStyle;rounded=0;orthogonalLoop=1;jettySize=auto;html=1;" edge="1" parent="1" source="XfNwtgA03yaYJ1Ry23kn-13" target="XfNwtgA03yaYJ1Ry23kn-14">
          <mxGeometry relative="1" as="geometry" />
        </mxCell>
        <mxCell id="XfNwtgA03yaYJ1Ry23kn-13" value="Set i = 0" style="whiteSpace=wrap;strokeWidth=2;" vertex="1" parent="1">
          <mxGeometry x="667" y="1029" width="119" height="54" as="geometry" />
        </mxCell>
        <mxCell id="XfNwtgA03yaYJ1Ry23kn-56" value="" style="edgeStyle=orthogonalEdgeStyle;rounded=0;orthogonalLoop=1;jettySize=auto;html=1;" edge="1" parent="1" source="XfNwtgA03yaYJ1Ry23kn-14" target="XfNwtgA03yaYJ1Ry23kn-15">
          <mxGeometry relative="1" as="geometry" />
        </mxCell>
        <mxCell id="XfNwtgA03yaYJ1Ry23kn-60" style="edgeStyle=orthogonalEdgeStyle;rounded=0;orthogonalLoop=1;jettySize=auto;html=1;entryX=1;entryY=0.5;entryDx=0;entryDy=0;" edge="1" parent="1" source="XfNwtgA03yaYJ1Ry23kn-14" target="XfNwtgA03yaYJ1Ry23kn-58">
          <mxGeometry relative="1" as="geometry" />
        </mxCell>
        <mxCell id="XfNwtgA03yaYJ1Ry23kn-14" value="i &amp;lt; N?" style="rhombus;strokeWidth=2;whiteSpace=wrap;" vertex="1" parent="1">
          <mxGeometry x="680" y="1130" width="93" height="93" as="geometry" />
        </mxCell>
        <mxCell id="XfNwtgA03yaYJ1Ry23kn-68" value="" style="edgeStyle=orthogonalEdgeStyle;rounded=0;orthogonalLoop=1;jettySize=auto;html=1;" edge="1" parent="1" source="XfNwtgA03yaYJ1Ry23kn-15" target="XfNwtgA03yaYJ1Ry23kn-17">
          <mxGeometry relative="1" as="geometry" />
        </mxCell>
        <mxCell id="XfNwtgA03yaYJ1Ry23kn-70" style="edgeStyle=orthogonalEdgeStyle;rounded=0;orthogonalLoop=1;jettySize=auto;html=1;entryX=0.5;entryY=0;entryDx=0;entryDy=0;" edge="1" parent="1" source="XfNwtgA03yaYJ1Ry23kn-15" target="XfNwtgA03yaYJ1Ry23kn-16">
          <mxGeometry relative="1" as="geometry" />
        </mxCell>
        <mxCell id="XfNwtgA03yaYJ1Ry23kn-15" value="Is arr i prime?" style="rhombus;strokeWidth=2;whiteSpace=wrap;" vertex="1" parent="1">
          <mxGeometry x="650.5" y="1265" width="152" height="152" as="geometry" />
        </mxCell>
        <mxCell id="XfNwtgA03yaYJ1Ry23kn-72" style="edgeStyle=orthogonalEdgeStyle;rounded=0;orthogonalLoop=1;jettySize=auto;html=1;entryX=0;entryY=0.5;entryDx=0;entryDy=0;exitX=0.5;exitY=1;exitDx=0;exitDy=0;" edge="1" parent="1" source="XfNwtgA03yaYJ1Ry23kn-16" target="XfNwtgA03yaYJ1Ry23kn-18">
          <mxGeometry relative="1" as="geometry" />
        </mxCell>
        <mxCell id="XfNwtgA03yaYJ1Ry23kn-16" value="Print arr i" style="whiteSpace=wrap;strokeWidth=2;" vertex="1" parent="1">
          <mxGeometry x="521" y="1453" width="129" height="54" as="geometry" />
        </mxCell>
        <mxCell id="XfNwtgA03yaYJ1Ry23kn-17" value="Print &#39;#&#39;" style="whiteSpace=wrap;strokeWidth=2;" vertex="1" parent="1">
          <mxGeometry x="670.5" y="1453" width="112" height="54" as="geometry" />
        </mxCell>
        <mxCell id="XfNwtgA03yaYJ1Ry23kn-67" style="edgeStyle=orthogonalEdgeStyle;rounded=0;orthogonalLoop=1;jettySize=auto;html=1;entryX=1;entryY=0.5;entryDx=0;entryDy=0;" edge="1" parent="1" source="XfNwtgA03yaYJ1Ry23kn-18" target="XfNwtgA03yaYJ1Ry23kn-65">
          <mxGeometry relative="1" as="geometry">
            <Array as="points">
              <mxPoint x="860" y="1584" />
              <mxPoint x="860" y="1000" />
            </Array>
          </mxGeometry>
        </mxCell>
        <mxCell id="XfNwtgA03yaYJ1Ry23kn-18" value="Increment i" style="whiteSpace=wrap;strokeWidth=2;" vertex="1" parent="1">
          <mxGeometry x="655" y="1560" width="143" height="54" as="geometry" />
        </mxCell>
        <mxCell id="XfNwtgA03yaYJ1Ry23kn-19" value="" style="curved=1;startArrow=none;endArrow=block;exitX=0.49;exitY=1;entryX=0.5;entryY=0;rounded=0;" edge="1" parent="1" source="XfNwtgA03yaYJ1Ry23kn-1" target="XfNwtgA03yaYJ1Ry23kn-2">
          <mxGeometry relative="1" as="geometry">
            <Array as="points" />
          </mxGeometry>
        </mxCell>
        <mxCell id="XfNwtgA03yaYJ1Ry23kn-20" value="" style="curved=1;startArrow=none;endArrow=block;exitX=0.5;exitY=1;entryX=0.5;entryY=0;rounded=0;" edge="1" parent="1" source="XfNwtgA03yaYJ1Ry23kn-2" target="XfNwtgA03yaYJ1Ry23kn-3">
          <mxGeometry relative="1" as="geometry">
            <Array as="points" />
          </mxGeometry>
        </mxCell>
        <mxCell id="XfNwtgA03yaYJ1Ry23kn-24" value="" style="curved=1;startArrow=none;endArrow=block;exitX=0.5;exitY=1;entryX=0.5;entryY=0;rounded=0;" edge="1" parent="1" source="XfNwtgA03yaYJ1Ry23kn-6" target="XfNwtgA03yaYJ1Ry23kn-7">
          <mxGeometry relative="1" as="geometry">
            <Array as="points" />
          </mxGeometry>
        </mxCell>
        <mxCell id="XfNwtgA03yaYJ1Ry23kn-30" value="" style="curved=1;startArrow=none;endArrow=block;exitX=0.5;exitY=1;entryX=0.5;entryY=0;rounded=0;" edge="1" parent="1" source="XfNwtgA03yaYJ1Ry23kn-11" target="XfNwtgA03yaYJ1Ry23kn-12">
          <mxGeometry relative="1" as="geometry">
            <Array as="points" />
          </mxGeometry>
        </mxCell>
        <mxCell id="XfNwtgA03yaYJ1Ry23kn-31" value="" style="curved=1;startArrow=none;endArrow=block;exitX=0.5;exitY=1;entryX=0.5;entryY=0;rounded=0;" edge="1" parent="1" source="XfNwtgA03yaYJ1Ry23kn-65" target="XfNwtgA03yaYJ1Ry23kn-13">
          <mxGeometry relative="1" as="geometry">
            <Array as="points" />
          </mxGeometry>
        </mxCell>
        <mxCell id="XfNwtgA03yaYJ1Ry23kn-37" value="" style="curved=1;startArrow=none;endArrow=block;exitX=0.5;exitY=1;entryX=0.5;entryY=0;rounded=0;" edge="1" parent="1" source="XfNwtgA03yaYJ1Ry23kn-17" target="XfNwtgA03yaYJ1Ry23kn-18">
          <mxGeometry relative="1" as="geometry">
            <Array as="points" />
          </mxGeometry>
        </mxCell>
        <mxCell id="XfNwtgA03yaYJ1Ry23kn-45" value="" style="edgeStyle=orthogonalEdgeStyle;rounded=0;orthogonalLoop=1;jettySize=auto;html=1;entryX=0.5;entryY=0;entryDx=0;entryDy=0;" edge="1" parent="1" source="XfNwtgA03yaYJ1Ry23kn-7" target="XfNwtgA03yaYJ1Ry23kn-42">
          <mxGeometry relative="1" as="geometry">
            <mxPoint x="295.92" y="658" as="sourcePoint" />
            <mxPoint x="294.92" y="726" as="targetPoint" />
          </mxGeometry>
        </mxCell>
        <mxCell id="XfNwtgA03yaYJ1Ry23kn-42" value="" style="ellipse;whiteSpace=wrap;html=1;aspect=fixed;" vertex="1" parent="1">
          <mxGeometry x="284.92" y="676" width="20" height="20" as="geometry" />
        </mxCell>
        <mxCell id="XfNwtgA03yaYJ1Ry23kn-48" value="Yes" style="text;html=1;align=center;verticalAlign=middle;whiteSpace=wrap;rounded=0;" vertex="1" parent="1">
          <mxGeometry x="330" y="340" width="60" height="30" as="geometry" />
        </mxCell>
        <mxCell id="XfNwtgA03yaYJ1Ry23kn-49" value="Yes" style="text;html=1;align=center;verticalAlign=middle;whiteSpace=wrap;rounded=0;" vertex="1" parent="1">
          <mxGeometry x="247.92000000000002" y="816" width="60" height="30" as="geometry" />
        </mxCell>
        <mxCell id="XfNwtgA03yaYJ1Ry23kn-52" value="No" style="text;html=1;align=center;verticalAlign=middle;whiteSpace=wrap;rounded=0;" vertex="1" parent="1">
          <mxGeometry x="479" y="554" width="60" height="30" as="geometry" />
        </mxCell>
        <mxCell id="XfNwtgA03yaYJ1Ry23kn-53" value="No" style="text;html=1;align=center;verticalAlign=middle;whiteSpace=wrap;rounded=0;" vertex="1" parent="1">
          <mxGeometry x="355.99999999999994" y="740" width="60" height="30" as="geometry" />
        </mxCell>
        <mxCell id="XfNwtgA03yaYJ1Ry23kn-57" value="Yes" style="text;html=1;align=center;verticalAlign=middle;whiteSpace=wrap;rounded=0;" vertex="1" parent="1">
          <mxGeometry x="726" y="1220" width="60" height="30" as="geometry" />
        </mxCell>
        <mxCell id="XfNwtgA03yaYJ1Ry23kn-59" value="" style="edgeStyle=orthogonalEdgeStyle;rounded=0;orthogonalLoop=1;jettySize=auto;html=1;entryX=0.5;entryY=0;entryDx=0;entryDy=0;" edge="1" parent="1" source="XfNwtgA03yaYJ1Ry23kn-4" target="XfNwtgA03yaYJ1Ry23kn-58">
          <mxGeometry relative="1" as="geometry">
            <mxPoint x="520" y="1078" as="sourcePoint" />
            <mxPoint x="521" y="1322" as="targetPoint" />
          </mxGeometry>
        </mxCell>
        <mxCell id="XfNwtgA03yaYJ1Ry23kn-58" value="" style="ellipse;whiteSpace=wrap;html=1;aspect=fixed;" vertex="1" parent="1">
          <mxGeometry x="510" y="1166.5" width="20" height="20" as="geometry" />
        </mxCell>
        <mxCell id="XfNwtgA03yaYJ1Ry23kn-61" value="No" style="text;html=1;align=center;verticalAlign=middle;whiteSpace=wrap;rounded=0;" vertex="1" parent="1">
          <mxGeometry x="584" y="1150" width="60" height="30" as="geometry" />
        </mxCell>
        <mxCell id="XfNwtgA03yaYJ1Ry23kn-66" value="" style="curved=1;startArrow=none;endArrow=block;exitX=0.5;exitY=1;entryX=0.5;entryY=0;rounded=0;" edge="1" parent="1" source="XfNwtgA03yaYJ1Ry23kn-12" target="XfNwtgA03yaYJ1Ry23kn-65">
          <mxGeometry relative="1" as="geometry">
            <Array as="points" />
            <mxPoint x="727" y="970" as="sourcePoint" />
            <mxPoint x="727" y="1020" as="targetPoint" />
          </mxGeometry>
        </mxCell>
        <mxCell id="XfNwtgA03yaYJ1Ry23kn-65" value="" style="ellipse;whiteSpace=wrap;html=1;aspect=fixed;" vertex="1" parent="1">
          <mxGeometry x="716.5" y="990" width="20" height="20" as="geometry" />
        </mxCell>
        <mxCell id="XfNwtgA03yaYJ1Ry23kn-69" value="No" style="text;html=1;align=center;verticalAlign=middle;whiteSpace=wrap;rounded=0;" vertex="1" parent="1">
          <mxGeometry x="716.5" y="1417" width="60" height="30" as="geometry" />
        </mxCell>
        <mxCell id="XfNwtgA03yaYJ1Ry23kn-71" value="Yes" style="text;html=1;align=center;verticalAlign=middle;whiteSpace=wrap;rounded=0;" vertex="1" parent="1">
          <mxGeometry x="570" y="1380" width="60" height="30" as="geometry" />
        </mxCell>
      </root>
    </mxGraphModel>
  </diagram>
</mxfile>
